{
    "asset" : {
        "generator" : "Khronos glTF Blender I/O v1.5.17",
        "version" : "2.0"
    },
    "scene" : 0,
    "scenes" : [
        {
            "name" : "Scene",
            "nodes" : [
                0
            ]
        }
    ],
    "nodes" : [
        {
            "mesh" : 0,
            "name" : "prothese_black_shiny",
            "rotation" : [
                0,
                0,
                0,
                -1
            ],
            "translation" : [
                0.25509628653526306,
                0.14860033988952637,
                0.1552177220582962
            ]
        }
    ],
    "meshes" : [
        {
            "name" : "prothese",
            "primitives" : [
                {
                    "attributes" : {
                        "POSITION" : 0,
                        "NORMAL" : 1,
                        "TEXCOORD_0" : 2
                    },
                    "indices" : 3
                }
            ]
        }
    ],
    "accessors" : [
        {
            "bufferView" : 0,
            "componentType" : 5126,
            "count" : 3075,
            "max" : [
                16.720216751098633,
                1.904726505279541,
                4.854211807250977
            ],
            "min" : [
                -16.93919563293457,
                -0.6516699194908142,
                -5.008522033691406
            ],
            "type" : "VEC3"
        },
        {
            "bufferView" : 1,
            "componentType" : 5126,
            "count" : 3075,
            "type" : "VEC3"
        },
        {
            "bufferView" : 2,
            "componentType" : 5126,
            "count" : 3075,
            "type" : "VEC2"
        },
        {
            "bufferView" : 3,
            "componentType" : 5123,
            "count" : 14592,
            "type" : "SCALAR"
        }
    ],
    "bufferViews" : [
        {
            "buffer" : 0,
            "byteLength" : 36900,
            "byteOffset" : 0
        },
        {
            "buffer" : 0,
            "byteLength" : 36900,
            "byteOffset" : 36900
        },
        {
            "buffer" : 0,
            "byteLength" : 24600,
            "byteOffset" : 73800
        },
        {
            "buffer" : 0,
            "byteLength" : 29184,
            "byteOffset" : 98400
        }
    ],
    "buffers" : [
        {
            "byteLength" : 127584,
            "uri" : "data:application/octet-stream;base64,"
        }
    ]
}
