{
	"asset":{
		"version":"2.0",
		"generator":"Created using the official Cinema 4D glTF Exporter 1.000x284978"
	},
	"scenes":[{
		"nodes":[0]
	}],
	"nodes":[{
		"name":"prothese",
		"rotation":[0.0,
		0.0,
		0.0,
		-1.0],
		"mesh":0,
		"translation":[0.25509628653526308,
		0.14860033988952638,
		0.1552177220582962],
		"scale":[1.0,
		1.0,
		1.0]
	}],
	"meshes":[{
		"name":"prothese",
		"primitives":[{
			"attributes":{
				"POSITION":1,
				"NORMAL":2,
				"TEXCOORD_0":3
			},
			"indices":0
		}]
	}],
	"accessors":[{
		"bufferView":0,
		"type":"SCALAR",
		"componentType":5123,
		"count":14592,
		"byteOffset":0,
		"min":[0],
		"max":[2990]
	},
	{
		"bufferView":1,
		"type":"VEC3",
		"componentType":5126,
		"count":2991,
		"byteOffset":0,
		"min":[-16.93919563293457,
		-0.6516699194908142,
		-5.008522033691406],
		"max":[16.720216751098634,
		1.904726505279541,
		4.854211807250977]
	},
	{
		"bufferView":1,
		"type":"VEC3",
		"componentType":5126,
		"count":2991,
		"byteOffset":12,
		"min":[-0.9961418509483337,
		-0.9777580499649048,
		-0.998562753200531],
		"max":[0.9992873072624207,
		0.9998301267623901,
		0.9988515973091126]
	},
	{
		"bufferView":1,
		"type":"VEC2",
		"componentType":5126,
		"count":2991,
		"byteOffset":24,
		"min":[0.0,
		0.0],
		"max":[1.0,
		1.0]
	}],
	"bufferViews":[{
		"target":34963,
		"buffer":0,
		"byteOffset":0,
		"byteLength":29184
	},
	{
		"target":34962,
		"buffer":0,
		"byteOffset":29184,
		"byteLength":95712,
		"byteStride":32
	}],
	"buffers":[{
		"uri":"data:application/octet-stream;base64,",
		"byteLength":124896
	}]
}