{
    "asset" : {
        "generator" : "Khronos glTF Blender I/O v1.5.17",
        "version" : "2.0"
    },
    "scene" : 0,
    "scenes" : [
        {
            "name" : "Scene",
            "nodes" : [
                2
            ]
        }
    ],
    "nodes" : [
        {
            "mesh" : 0,
            "name" : "led",
            "translation" : [
                14.658843040466309,
                -1.7942094802856445,
                3.168682813644409
            ]
        },
        {
            "mesh" : 1,
            "name" : "prothese_black_shiny",
            "translation" : [
                14.658843040466309,
                -1.7942094802856445,
                3.168682813644409
            ]
        },
        {
            "children" : [
                0,
                1
            ],
            "name" : "prothese",
            "translation" : [
                -14.403746604919434,
                1.942809820175171,
                -3.013465166091919
            ]
        }
    ],
    "meshes" : [
        {
            "name" : "prothese.001",
            "primitives" : [
                {
                    "attributes" : {
                        "POSITION" : 0,
                        "NORMAL" : 1,
                        "TEXCOORD_0" : 2
                    },
                    "indices" : 3
                }
            ]
        },
        {
            "name" : "prothese",
            "primitives" : [
                {
                    "attributes" : {
                        "POSITION" : 4,
                        "NORMAL" : 5,
                        "TEXCOORD_0" : 6
                    },
                    "indices" : 7
                }
            ]
        }
    ],
    "accessors" : [
        {
            "bufferView" : 0,
            "componentType" : 5126,
            "count" : 1139,
            "max" : [
                16.487091064453125,
                1.5445351600646973,
                -2.4914491176605225
            ],
            "min" : [
                -16.72857666015625,
                0.5893731713294983,
                -4.529783248901367
            ],
            "type" : "VEC3"
        },
        {
            "bufferView" : 1,
            "componentType" : 5126,
            "count" : 1139,
            "type" : "VEC3"
        },
        {
            "bufferView" : 2,
            "componentType" : 5126,
            "count" : 1139,
            "type" : "VEC2"
        },
        {
            "bufferView" : 3,
            "componentType" : 5123,
            "count" : 4713,
            "type" : "SCALAR"
        },
        {
            "bufferView" : 4,
            "componentType" : 5126,
            "count" : 2230,
            "max" : [
                16.720216751098633,
                1.904726505279541,
                4.854211807250977
            ],
            "min" : [
                -16.93919563293457,
                -0.6516699194908142,
                -5.008522033691406
            ],
            "type" : "VEC3"
        },
        {
            "bufferView" : 5,
            "componentType" : 5126,
            "count" : 2230,
            "type" : "VEC3"
        },
        {
            "bufferView" : 6,
            "componentType" : 5126,
            "count" : 2230,
            "type" : "VEC2"
        },
        {
            "bufferView" : 7,
            "componentType" : 5123,
            "count" : 9711,
            "type" : "SCALAR"
        }
    ],
    "bufferViews" : [
        {
            "buffer" : 0,
            "byteLength" : 13668,
            "byteOffset" : 0
        },
        {
            "buffer" : 0,
            "byteLength" : 13668,
            "byteOffset" : 13668
        },
        {
            "buffer" : 0,
            "byteLength" : 9112,
            "byteOffset" : 27336
        },
        {
            "buffer" : 0,
            "byteLength" : 9426,
            "byteOffset" : 36448
        },
        {
            "buffer" : 0,
            "byteLength" : 26760,
            "byteOffset" : 45876
        },
        {
            "buffer" : 0,
            "byteLength" : 26760,
            "byteOffset" : 72636
        },
        {
            "buffer" : 0,
            "byteLength" : 17840,
            "byteOffset" : 99396
        },
        {
            "buffer" : 0,
            "byteLength" : 19422,
            "byteOffset" : 117236
        }
    ],
    "buffers" : [
        {
            "byteLength" : 136660,
            "uri" : "data:application/octet-stream;base64,"
        }
    ]
}
