{
	"asset":{
		"version":"2.0",
		"generator":"Created using the official Cinema 4D glTF Exporter 1.000x284978"
	},
	"scenes":[{
		"nodes":[0]
	}],
	"nodes":[{
		"name":"bonhome",
		"rotation":[0.0,
		-1.2246468525851679e-16,
		0.0,
		1.0],
		"mesh":0,
		"translation":[0.6769059896469116,
		-0.9368541836738586,
		-2.851548671722412],
		"scale":[1.0,
		1.0,
		1.0]
	}],
	"meshes":[{
		"name":"bonhome",
		"primitives":[{
			"attributes":{
				"POSITION":1,
				"NORMAL":2,
				"TEXCOORD_0":3
			},
			"indices":0
		}]
	}],
	"accessors":[{
		"bufferView":0,
		"type":"SCALAR",
		"componentType":5123,
		"count":25884,
		"byteOffset":0,
		"min":[0],
		"max":[4540]
	},
	{
		"bufferView":1,
		"type":"VEC3",
		"componentType":5126,
		"count":4541,
		"byteOffset":0,
		"min":[-95.20640563964844,
		-65.80906677246094,
		-33.3579216003418],
		"max":[93.85260009765625,
		67.58714294433594,
		55.671173095703128]
	},
	{
		"bufferView":1,
		"type":"VEC3",
		"componentType":5126,
		"count":4541,
		"byteOffset":12,
		"min":[-0.9999153017997742,
		-0.9997566938400269,
		-0.9989570379257202],
		"max":[0.9999153017997742,
		0.9999179244041443,
		0.9996018409729004]
	},
	{
		"bufferView":1,
		"type":"VEC2",
		"componentType":5126,
		"count":4541,
		"byteOffset":24,
		"min":[0.0,
		0.0],
		"max":[0.84375,
		1.0]
	}],
	"bufferViews":[{
		"target":34963,
		"buffer":0,
		"byteOffset":0,
		"byteLength":51768
	},
	{
		"target":34962,
		"buffer":0,
		"byteOffset":51768,
		"byteLength":145312,
		"byteStride":32
	}],
	"buffers":[{
		"uri":"data:application/octet-stream;base64,",
		"byteLength":197080
	}]
}