{
    "asset" : {
        "generator" : "Khronos glTF Blender I/O v1.5.17",
        "version" : "2.0"
    },
    "scene" : 0,
    "scenes" : [
        {
            "name" : "Scene",
            "nodes" : [
                0
            ]
        }
    ],
    "nodes" : [
        {
            "mesh" : 0,
            "name" : "bonhome_whte_matte",
            "translation" : [
                0.6769059896469116,
                -0.9368541836738586,
                -2.851548671722412
            ]
        }
    ],
    "meshes" : [
        {
            "name" : "bonhome",
            "primitives" : [
                {
                    "attributes" : {
                        "POSITION" : 0,
                        "NORMAL" : 1,
                        "TEXCOORD_0" : 2
                    },
                    "indices" : 3
                }
            ]
        }
    ],
    "accessors" : [
        {
            "bufferView" : 0,
            "componentType" : 5126,
            "count" : 4545,
            "max" : [
                93.85260009765625,
                67.58714294433594,
                55.671173095703125
            ],
            "min" : [
                -95.20640563964844,
                -65.80906677246094,
                -33.3579216003418
            ],
            "type" : "VEC3"
        },
        {
            "bufferView" : 1,
            "componentType" : 5126,
            "count" : 4545,
            "type" : "VEC3"
        },
        {
            "bufferView" : 2,
            "componentType" : 5126,
            "count" : 4545,
            "type" : "VEC2"
        },
        {
            "bufferView" : 3,
            "componentType" : 5123,
            "count" : 25884,
            "type" : "SCALAR"
        }
    ],
    "bufferViews" : [
        {
            "buffer" : 0,
            "byteLength" : 54540,
            "byteOffset" : 0
        },
        {
            "buffer" : 0,
            "byteLength" : 54540,
            "byteOffset" : 54540
        },
        {
            "buffer" : 0,
            "byteLength" : 36360,
            "byteOffset" : 109080
        },
        {
            "buffer" : 0,
            "byteLength" : 51768,
            "byteOffset" : 145440
        }
    ],
    "buffers" : [
        {
            "byteLength" : 197208,
            "uri" : "data:application/octet-stream;base64,"
        }
    ]
}
