{
    "asset" : {
        "generator" : "Khronos glTF Blender I/O v1.7.33",
        "version" : "2.0"
    },
    "scene" : 0,
    "scenes" : [
        {
            "name" : "Scene",
            "nodes" : [
                0
            ]
        }
    ],
    "nodes" : [
        {
            "mesh" : 0,
            "name" : "ecran_Morpheus",
            "rotation" : [
                0.7071068286895752,
                0,
                0,
                0.7071067094802856
            ],
            "scale" : [
                0.009999999776482582,
                0.009999999776482582,
                0.009999999776482582
            ],
            "translation" : [
                0,
                -0.31354856491088867,
                0
            ]
        }
    ],
    "meshes" : [
        {
            "name" : "Mesh.026",
            "primitives" : [
                {
                    "attributes" : {
                        "POSITION" : 0,
                        "NORMAL" : 1,
                        "TEXCOORD_0" : 2
                    },
                    "indices" : 3
                }
            ]
        }
    ],
    "accessors" : [
        {
            "bufferView" : 0,
            "componentType" : 5126,
            "count" : 7923,
            "max" : [
                51.010772705078125,
                51.62189483642578,
                -38.83916473388672
            ],
            "min" : [
                -51.1373291015625,
                -50.526161193847656,
                -51.02801513671875
            ],
            "type" : "VEC3"
        },
        {
            "bufferView" : 1,
            "componentType" : 5126,
            "count" : 7923,
            "type" : "VEC3"
        },
        {
            "bufferView" : 2,
            "componentType" : 5126,
            "count" : 7923,
            "type" : "VEC2"
        },
        {
            "bufferView" : 3,
            "componentType" : 5123,
            "count" : 44928,
            "type" : "SCALAR"
        }
    ],
    "bufferViews" : [
        {
            "buffer" : 0,
            "byteLength" : 95076,
            "byteOffset" : 0
        },
        {
            "buffer" : 0,
            "byteLength" : 95076,
            "byteOffset" : 95076
        },
        {
            "buffer" : 0,
            "byteLength" : 63384,
            "byteOffset" : 190152
        },
        {
            "buffer" : 0,
            "byteLength" : 89856,
            "byteOffset" : 253536
        }
    ],
    "buffers" : [
        {
            "byteLength" : 343392,
            "uri" : "data:application/octet-stream;base64,"
        }
    ]
}
