<svg width="56" height="34" viewBox="0 0 56 34" fill="none" xmlns="http://www.w3.org/2000/svg">
<rect x="1.45166" y="1" width="53.5483" height="32" rx="16" stroke="#AE7665" stroke-width="2"/>
<path fill-rule="evenodd" clip-rule="evenodd" d="M42.2256 18.0005H14.2256V16.0005H42.2256V18.0005Z" fill="#AE7665"/>
<path fill-rule="evenodd" clip-rule="evenodd" d="M37.3172 15.9187C35.8843 14.8199 34.6529 13.51 33.9448 12.6249L35.5066 11.3755C36.1318 12.157 37.2504 13.3471 38.5342 14.3317C39.8561 15.3454 41.1724 16.0002 42.2257 16.0002V18.0002C40.479 18.0002 38.7119 16.9883 37.3172 15.9187Z" fill="#AE7665"/>
<path fill-rule="evenodd" clip-rule="evenodd" d="M37.3172 18.0818C35.8843 19.1806 34.6529 20.4905 33.9448 21.3756L35.5066 22.625C36.1318 21.8435 37.2504 20.6533 38.5342 19.6688C39.8561 18.6551 41.1724 18.0003 42.2257 18.0003V16.0003C40.479 16.0003 38.7119 17.0122 37.3172 18.0818Z" fill="#AE7665"/>
</svg>
