<svg width="101" height="67" viewBox="0 0 101 67" fill="none" xmlns="http://www.w3.org/2000/svg">
<path fill-rule="evenodd" clip-rule="evenodd" d="M41.7969 0.0146528C42.9138 0.0146533 43.9849 0.458322 44.7746 1.24806L51.6241 8.09754C52.4139 8.88727 52.8575 9.95839 52.8575 11.0752V30.3235H46.2699V13.8039C46.2699 12.6871 45.8263 11.616 45.0365 10.8262L42.046 7.83566C41.2562 7.04593 40.1851 6.60226 39.0683 6.60226H36.7352C34.4095 6.60226 32.5241 8.48764 32.5241 10.8134V30.3235H25.9365V6.60226V4.22575C25.9365 1.90002 27.8219 0.0146484 30.1476 0.0146484H32.5241L41.7969 0.0146528ZM72.1054 8.35236C72.1054 7.2355 71.6617 6.16439 70.872 5.37466L66.7454 1.24805C65.9557 0.458318 64.8846 0.0146484 63.7677 0.0146484H58.229C57.4787 0.0146484 57.1029 0.92184 57.6335 1.45241L64.2844 8.10333C65.0741 8.89307 65.5178 9.96418 65.5178 11.081V30.3235H72.1054V8.35236ZM74.027 2.03598C74.5387 2.03598 74.9534 1.6212 74.9534 1.10954C74.9534 0.597875 74.5387 0.183093 74.027 0.183093C73.5153 0.183093 73.1005 0.597875 73.1005 1.10954C73.1005 1.6212 73.5153 2.03598 74.027 2.03598ZM74.027 2.20442C74.6317 2.20442 75.1219 1.71422 75.1219 1.10954C75.1219 0.504846 74.6317 0.0146484 74.027 0.0146484C73.4223 0.0146484 72.9321 0.504846 72.9321 1.10954C72.9321 1.71422 73.4223 2.20442 74.027 2.20442ZM73.7169 1.41735V1.54598H74.3011V1.41735H74.1028V0.688448H73.9452C73.9202 0.739185 73.8852 0.778846 73.8402 0.807431C73.7959 0.836015 73.7459 0.850307 73.6901 0.850307L73.7008 0.982153C73.7487 0.985011 73.7912 0.975007 73.8284 0.952139C73.8656 0.928557 73.8931 0.894256 73.9109 0.849235H73.942V1.41735H73.7169Z" fill="#1E1E1E"/>
<path d="M13.3564 58.8L11.8104 54.0204V60.9774H10.8306V52.2676H12.3004L13.9117 57.5044L15.5121 52.2676H16.9275V60.9774H15.9476V54.0095L14.4016 58.8H13.3564Z" fill="#AE7665"/>
<path d="M21.205 61.0863C20.2469 61.0863 19.5175 60.8214 19.0166 60.2915C18.5158 59.7544 18.2654 58.9778 18.2654 57.9616V55.3269C18.2654 54.2962 18.5158 53.5123 19.0166 52.9752C19.5247 52.4309 20.2578 52.1587 21.2159 52.1587C22.1667 52.1587 22.8925 52.4309 23.3933 52.9752C23.8942 53.5123 24.1446 54.2962 24.1446 55.3269V57.9616C24.1446 58.9778 23.8942 59.7544 23.3933 60.2915C22.8925 60.8214 22.1631 61.0863 21.205 61.0863ZM21.205 60.1064C21.8727 60.1064 22.3482 59.9431 22.6312 59.6165C22.9143 59.2899 23.0558 58.7383 23.0558 57.9616V55.3269C23.0558 54.5358 22.9143 53.9732 22.6312 53.6394C22.3482 53.3055 21.8727 53.1385 21.205 53.1385C20.5372 53.1385 20.0618 53.3055 19.7788 53.6394C19.4957 53.9732 19.3541 54.5358 19.3541 55.3269V57.9616C19.3541 58.7383 19.4957 59.2899 19.7788 59.6165C20.0618 59.9431 20.5372 60.1064 21.205 60.1064Z" fill="#AE7665"/>
<path d="M26.8979 56.6443H29.0753C29.6632 56.6443 30.0806 56.539 30.3274 56.3285C30.5814 56.1108 30.7084 55.7479 30.7084 55.2398V54.5648C30.7084 54.0857 30.5814 53.7482 30.3274 53.5523C30.0806 53.349 29.6632 53.2474 29.0753 53.2474H26.8979V56.6443ZM26.8979 60.9774H25.8091V52.2676H29.0862C29.9935 52.2676 30.6721 52.4599 31.1221 52.8446C31.5722 53.222 31.7972 53.7954 31.7972 54.5648V55.2398C31.7972 55.9366 31.6193 56.481 31.2637 56.8729C30.9153 57.2648 30.3818 57.4971 29.6632 57.5697L31.8951 60.9774H30.654L28.4439 57.6023H26.8979V60.9774Z" fill="#AE7665"/>
<path d="M33.1351 60.9774V52.2676H36.1944C37.1017 52.2676 37.7804 52.4599 38.2304 52.8446C38.6804 53.222 38.9054 53.7954 38.9054 54.5648V55.6317C38.9054 56.4011 38.6767 56.9781 38.2195 57.3628C37.7695 57.7403 37.0908 57.929 36.1836 57.929H34.2238V60.9774H33.1351ZM34.2238 56.9709H36.1836C36.7715 56.9709 37.1888 56.8693 37.4356 56.666C37.6896 56.4556 37.8167 56.1035 37.8167 55.61V54.6083C37.8167 54.1148 37.6896 53.7664 37.4356 53.5632C37.1888 53.3527 36.7715 53.2474 36.1836 53.2474H34.2238V56.9709Z" fill="#AE7665"/>
<path d="M40.4611 60.9774V52.2676H41.5498V55.7515H44.816V52.2676H45.9047V60.9774H44.816V56.7314H41.5498V60.9774H40.4611Z" fill="#AE7665"/>
<path d="M47.787 60.9774V52.2676H53.4485V53.2474H48.8758V55.7515H52.9041V56.7314H48.8758V59.9976H53.4485V60.9774H47.787Z" fill="#AE7665"/>
<path d="M57.8349 61.0863C56.9276 61.0863 56.2453 60.8286 55.788 60.3133C55.338 59.7907 55.113 59.0068 55.113 57.9616V52.2676H56.2018V57.9616C56.2018 58.7383 56.3251 59.2899 56.5719 59.6165C56.826 59.9431 57.2469 60.1064 57.8349 60.1064C58.4228 60.1064 58.8401 59.9431 59.0869 59.6165C59.3409 59.2899 59.468 58.7383 59.468 57.9616V52.2676H60.5567V57.9616C60.5567 59.0068 60.328 59.7907 59.8708 60.3133C59.4208 60.8286 58.7421 61.0863 57.8349 61.0863Z" fill="#AE7665"/>
<path d="M65.3024 61.0427C64.6491 61.0427 64.0394 60.9375 63.4733 60.727C62.9072 60.5165 62.3991 60.1318 61.9491 59.573L62.733 58.8326C63.0378 59.2463 63.4007 59.5548 63.8217 59.758C64.2499 59.9613 64.7544 60.0629 65.335 60.0629C65.8721 60.0629 66.304 59.9395 66.6306 59.6927C66.9645 59.4387 67.1314 59.0975 67.1314 58.6693C67.1314 58.2556 66.9899 57.9399 66.7068 57.7221C66.4238 57.4971 65.8649 57.2612 65.0302 57.0144C63.9705 56.7096 63.2483 56.3793 62.8636 56.0237C62.4789 55.668 62.2866 55.1636 62.2866 54.5104C62.2866 53.7555 62.537 53.1857 63.0378 52.801C63.5459 52.4164 64.1592 52.224 64.8778 52.224C65.4874 52.224 66.0645 52.3329 66.6088 52.5506C67.1605 52.7611 67.6468 53.1385 68.0677 53.6829L67.3165 54.4341C67.0262 54.0204 66.6633 53.7119 66.2278 53.5087C65.7923 53.3055 65.3495 53.2039 64.8995 53.2039C64.4423 53.2039 64.0757 53.2982 63.7999 53.4869C63.5241 53.6684 63.3862 53.9769 63.3862 54.4124C63.3862 54.7971 63.535 55.1019 63.8326 55.3269C64.1374 55.5446 64.7326 55.7805 65.6181 56.0346C66.6197 56.3249 67.302 56.6443 67.6649 56.9927C68.0351 57.3338 68.2202 57.831 68.2202 58.4842C68.2202 59.3189 67.9226 59.954 67.3274 60.3895C66.7322 60.825 66.0572 61.0427 65.3024 61.0427Z" fill="#AE7665"/>
<path d="M80.9777 60.9774L78.0708 53.6394V60.9774H77.0909V52.2676H78.5825L81.5547 59.7689V52.2676H82.5346V60.9774H80.9777Z" fill="#AE7665"/>
<path d="M84.7435 60.9774V59.9976H87.1387V53.574H86.823C86.5762 54.0095 86.2569 54.318 85.8649 54.4995C85.4802 54.6809 85.0339 54.7281 84.5258 54.641L84.4169 53.574C84.9758 53.6394 85.4875 53.5632 85.952 53.3454C86.4166 53.1204 86.823 52.7611 87.1714 52.2676H88.2275V59.9976H90.4049V60.9774H84.7435Z" fill="#AE7665"/>
<path fill-rule="evenodd" clip-rule="evenodd" d="M90.3077 47.2049H10.6669C5.7063 47.2049 1.68491 51.2263 1.68491 56.187C1.68491 61.1476 5.7063 65.169 10.6669 65.169H90.3077C95.2683 65.169 99.2897 61.1476 99.2897 56.187C99.2897 51.2263 95.2683 47.2049 90.3077 47.2049ZM10.6669 46.0073C5.04488 46.0073 0.487305 50.5649 0.487305 56.187C0.487305 61.809 5.04488 66.3666 10.6669 66.3666H90.3077C95.9297 66.3666 100.487 61.809 100.487 56.187C100.487 50.5649 95.9297 46.0073 90.3077 46.0073H10.6669Z" fill="#AE7665"/>
</svg>
