<svg width="224" height="222" viewBox="0 0 224 222" fill="none" xmlns="http://www.w3.org/2000/svg">
<path d="M73.92 74H4.48C2.00576 74 0 76.0079 0 78.4848V217.515C0 219.992 2.00576 222 4.48 222H72.0643C73.2525 222 74.392 221.527 75.2322 220.686L147.84 148H78.4C75.9258 148 73.92 145.992 73.92 143.515V74Z" fill="black"/>
<path d="M146.83 0H76.16C73.6858 0 71.68 2.00794 71.68 4.48485V74.1374C71.68 75.3207 72.1471 76.456 72.9796 77.2961L143.959 148.916C144.8 149.765 145.945 150.242 147.139 150.242H219.52C221.994 150.242 224 148.235 224 145.758V77.832C224 76.6487 223.533 75.5133 222.7 74.6733L150.01 1.32615C149.169 0.477395 148.024 0 146.83 0Z" fill="black"/>
</svg>
